<svg width="256" height="256" viewBox="0 0 256 256" fill="none" xmlns="http://www.w3.org/2000/svg">
<path d="M43.7 55.9004H93.3C96.4 55.9004 99 58.4004 99 61.6004V80.5004C99 83.6004 96.5 86.2004 93.3 86.2004H75.5L77.9 92.2004L67.2 86.2004H43.7C40.6 86.2004 38 83.7004 38 80.5004V61.5004C38 58.4004 40.5 55.9004 43.7 55.9004Z" fill="#9B5C8F"/>
<path d="M41.0001 61.0006C41.3001 60.5006 41.9001 60.3006 42.6001 60.2006C43.9001 60.1006 44.6001 60.7006 44.8001 62.0006C45.6001 67.2006 46.4001 71.6006 47.3001 75.2006L52.8001 64.8006C53.3001 63.9006 53.9001 63.4006 54.7001 63.3006C55.8001 63.2006 56.5001 63.9006 56.7001 65.4006C57.3001 68.7006 58.1001 71.5006 59.1001 73.9006C59.7001 67.6006 60.8001 63.0006 62.4001 60.2006C62.8001 59.5006 63.3001 59.2006 64.0001 59.1006C64.6001 59.1006 65.1001 59.2006 65.6001 59.6006C66.1001 60.0006 66.3001 60.4006 66.4001 61.0006C66.4001 61.4006 66.4001 61.8006 66.2001 62.2006C65.2001 64.0006 64.4001 67.0006 63.8001 71.2006C63.2001 75.3006 63.0001 78.4006 63.1001 80.7006C63.1001 81.3006 63.1001 81.9006 62.8001 82.3006C62.5001 82.8006 62.1001 83.1006 61.5001 83.2006C60.9001 83.2006 60.2001 83.0006 59.5001 82.3006C57.2001 79.9006 55.3001 76.4006 54.0001 71.7006C52.2001 75.0006 51.0001 77.4006 50.3001 79.0006C48.8001 81.8006 47.6001 83.3006 46.5001 83.3006C45.8001 83.3006 45.3001 82.8006 44.8001 81.6006C43.5001 78.3006 42.2001 72.0006 40.7001 62.7006C40.6001 62.0006 40.7001 61.5006 41.0001 61.0006Z" fill="white"/>
<path d="M94.6 64.9004C93.7 63.3004 92.4 62.4004 90.6 62.0004C90.1 61.9004 89.7 61.9004 89.3 61.9004C86.9 61.9004 85 63.1004 83.4 65.6004C82.1 67.7004 81.5 70.1004 81.5 72.6004C81.5 74.5004 81.9 76.2004 82.7 77.5004C83.6 79.1004 84.9 80.0004 86.7 80.4004C87.2 80.5004 87.6 80.5004 88 80.5004C90.4 80.5004 92.4 79.3004 93.9 76.8004C95.2 74.7004 95.8 72.3004 95.8 69.7004C95.8 67.9004 95.4 66.3004 94.6 64.9004ZM91.5 71.8004C91.2 73.4004 90.5 74.7004 89.6 75.5004C88.9 76.1004 88.2 76.4004 87.6 76.3004C87 76.2004 86.5 75.7004 86.1 74.7004C85.8 73.9004 85.7 73.2004 85.7 72.4004C85.7 71.8004 85.7 71.2004 85.9 70.6004C86.1 69.6004 86.5 68.6004 87.2 67.6004C88 66.4004 88.9 65.9004 89.8 66.1004C90.4 66.2004 90.9 66.7004 91.3 67.7004C91.6 68.5004 91.7 69.2004 91.7 70.0004C91.7 70.6004 91.6 71.3004 91.5 71.8004Z" fill="white"/>
<path d="M78.9999 64.9004C78.0999 63.3004 76.7999 62.4004 74.9999 62.0004C74.4999 61.9004 74.0999 61.9004 73.6999 61.9004C71.2999 61.9004 69.3999 63.1004 67.7999 65.6004C66.4999 67.7004 65.8999 70.1004 65.8999 72.6004C65.8999 74.5004 66.2999 76.2004 67.0999 77.5004C67.9999 79.1004 69.2999 80.0004 71.0999 80.4004C71.5999 80.5004 71.9999 80.5004 72.3999 80.5004C74.7999 80.5004 76.7999 79.3004 78.2999 76.8004C79.5999 74.7004 80.1999 72.3004 80.1999 69.7004C80.1999 67.9004 79.7999 66.3004 78.9999 64.9004ZM75.8999 71.8004C75.5999 73.4004 74.8999 74.7004 73.9999 75.5004C73.2999 76.1004 72.5999 76.4004 71.9999 76.3004C71.3999 76.2004 70.8999 75.7004 70.4999 74.7004C70.1999 73.9004 70.0999 73.2004 70.0999 72.4004C70.0999 71.8004 70.0999 71.2004 70.2999 70.6004C70.4999 69.6004 70.8999 68.6004 71.5999 67.6004C72.3999 66.4004 73.2999 65.9004 74.1999 66.1004C74.7999 66.2004 75.2999 66.7004 75.6999 67.7004C75.9999 68.5004 76.0999 69.2004 76.0999 70.0004C75.9999 70.6004 75.9999 71.3004 75.8999 71.8004Z" fill="white"/>
<path d="M105.3 64.7002C103.6 66.3002 102.8 68.4002 102.8 71.0002C102.8 73.7002 103.6 75.9002 105.3 77.6002C106.9 79.3002 109.1 80.1002 111.8 80.1002C112.6 80.1002 113.4 80.0002 114.4 79.7002V75.7002C113.5 75.9002 112.8 76.1002 112.1 76.1002C110.8 76.1002 109.7 75.7002 108.9 74.8002C108.1 73.9002 107.7 72.7002 107.7 71.2002C107.7 69.8002 108.1 68.6002 108.9 67.7002C109.7 66.8002 110.7 66.3002 111.9 66.3002C112.7 66.3002 113.5 66.4002 114.4 66.7002V62.7002C113.6 62.5002 112.7 62.4002 111.7 62.4002C109 62.2002 106.9 63.1002 105.3 64.7002ZM122.6 62.2002C120.3 62.2002 118.5 63.0002 117.2 64.5002C115.9 66.0002 115.3 68.2002 115.3 70.9002C115.3 73.9002 115.9 76.1002 117.2 77.7002C118.5 79.3002 120.3 80.1002 122.8 80.1002C125.2 80.1002 127 79.3002 128.3 77.7002C129.6 76.1002 130.2 73.9002 130.2 71.1002C130.2 68.3002 129.6 66.1002 128.3 64.5002C126.9 63.0002 125 62.2002 122.6 62.2002ZM124.5 75.2002C124.1 75.9002 123.4 76.2002 122.5 76.2002C121.7 76.2002 121.1 75.9002 120.7 75.2002C120.3 74.5002 120.1 73.1002 120.1 71.0002C120.1 67.7002 120.9 66.1002 122.6 66.1002C124.3 66.1002 125.2 67.7002 125.2 71.1002C125.2 73.1002 125 74.5002 124.5 75.2002ZM142.5 62.7002L141.6 66.5002C141.4 67.5002 141.2 68.5002 141 69.5002L140.5 72.1002C140 69.5002 139.4 66.3002 138.6 62.7002H132.8L130.6 79.7002H134.9L136 68.0002L139 79.7002H142.1L144.9 68.0002L146.1 79.7002H150.6L148.3 62.7002H142.5ZM163.2 62.7002L162.3 66.5002C162.1 67.5002 161.9 68.5002 161.7 69.5002L161.2 72.1002C160.7 69.5002 160.1 66.3002 159.3 62.7002H153.5L151.3 79.7002H155.6L156.8 68.0002L159.8 79.7002H162.9L165.7 68.0002L166.9 79.7002H171.4L169.1 62.7002H163.2ZM177.3 73.0002H181.4V69.5002H177.3V66.4002H182V62.8002H172.7V79.8002H182V76.2002H177.3V73.0002ZM195 70.3002C195.5 69.5002 195.7 68.7002 195.7 67.9002C195.7 66.3002 195.1 65.0002 193.8 64.1002C192.6 63.2002 190.8 62.7002 188.7 62.7002H183.4V79.7002H188V72.0002H188.1L191.8 79.7002H196.6L192.9 72.0002C193.8 71.6002 194.5 71.1002 195 70.3002ZM187.9 70.0002V66.0002C189 66.0002 189.8 66.2002 190.2 66.5002C190.7 66.8002 190.9 67.4002 190.9 68.2002C191 69.4002 190 70.0002 187.9 70.0002ZM198.4 64.7002C196.7 66.3002 195.9 68.4002 195.9 71.0002C195.9 73.7002 196.7 75.9002 198.4 77.6002C200 79.3002 202.2 80.1002 204.9 80.1002C205.7 80.1002 206.5 80.0002 207.5 79.7002V75.7002C206.6 75.9002 205.9 76.1002 205.2 76.1002C203.9 76.1002 202.8 75.7002 202 74.8002C201.2 73.9002 200.8 72.7002 200.8 71.2002C200.8 69.8002 201.2 68.6002 202 67.7002C202.8 66.8002 203.8 66.3002 205 66.3002C205.8 66.3002 206.6 66.4002 207.5 66.7002V62.7002C206.7 62.5002 205.8 62.4002 204.8 62.4002C202.2 62.2002 200.1 63.1002 198.4 64.7002ZM213.3 76.0002V73.0002H217.4V69.5002H213.3V66.4002H218V62.8002H208.7V79.8002H218V76.2002L213.3 76.0002Z" fill="black"/>
<path d="M98 128H158" stroke="#231F20" stroke-width="2" stroke-miterlimit="10"/>
<g clip-path="url(#clip0_2554_102266)">
<g clip-path="url(#clip1_2554_102266)">
<mask id="mask0_2554_102266" style="mask-type:luminance" maskUnits="userSpaceOnUse" x="68" y="168" width="118" height="24">
<path d="M73.7325 180.731C73.7325 179.332 74.2886 177.989 75.2784 176.999C76.2682 176.009 77.6108 175.453 79.0106 175.453C80.4105 175.453 81.753 176.009 82.7428 176.999C83.7327 177.989 84.2887 179.332 84.2887 180.731C84.2887 182.131 83.7327 183.474 82.7428 184.464C81.753 185.453 80.4105 186.01 79.0106 186.01C77.6108 186.01 76.2682 185.453 75.2784 184.464C74.2886 183.474 73.7325 182.131 73.7325 180.731ZM68.6479 180.557C68.4998 186.519 73.1958 191.092 78.6533 191.092C80.5205 191.092 82.9945 190.572 84.2939 189.272V190.677C84.2939 190.787 84.3375 190.892 84.415 190.969C84.4925 191.047 84.5976 191.09 84.7071 191.09H88.9575C89.067 191.09 89.1719 191.046 89.2493 190.969C89.3267 190.891 89.3703 190.786 89.3707 190.677V180.731C89.3707 177.918 88.3091 175.286 86.2963 173.325C84.2835 171.364 81.7107 170.379 78.8898 170.379C73.7156 170.374 68.7987 174.802 68.6479 180.557ZM90.8052 180.731V190.678C90.8055 190.788 90.8492 190.893 90.9266 190.97C91.004 191.048 91.1089 191.091 91.2184 191.092H95.4739C95.5834 191.091 95.6883 191.048 95.7657 190.97C95.8431 190.893 95.8868 190.788 95.8871 190.678V180.731C95.8871 180.029 96.0275 179.333 96.3001 178.685C96.5726 178.037 96.9718 177.45 97.4742 176.959C97.9766 176.467 98.5721 176.081 99.2258 175.823C99.8795 175.564 100.578 175.439 101.281 175.455C104.128 175.516 106.443 177.923 106.443 180.832V190.678C106.444 190.788 106.487 190.893 106.565 190.97C106.642 191.048 106.747 191.091 106.857 191.092H111.112C111.222 191.091 111.327 191.048 111.404 190.97C111.481 190.893 111.525 190.788 111.525 190.678V180.731C111.525 177.984 110.434 175.349 108.491 173.406C106.548 171.463 103.913 170.371 101.165 170.371C98.4176 170.371 95.7825 171.463 93.8396 173.406C91.8967 175.349 90.8052 177.984 90.8052 180.731ZM171.481 172.622C171.45 172.651 171.409 172.667 171.366 172.667C171.324 172.667 171.283 172.651 171.252 172.622C169.711 171.172 167.674 170.367 165.558 170.37C164.79 170.372 164.026 170.472 163.284 170.669C159.72 171.614 157.232 174.876 157.232 178.617V190.678C157.232 190.788 157.275 190.893 157.353 190.97C157.43 191.048 157.535 191.091 157.645 191.092H161.855C161.964 191.092 162.069 191.048 162.147 190.97C162.224 190.893 162.268 190.788 162.268 190.678V178.698C162.269 177.826 162.616 176.989 163.233 176.373C163.85 175.756 164.686 175.409 165.558 175.408C166.01 175.411 166.457 175.499 166.876 175.668C167.459 175.905 167.959 176.311 168.31 176.835C168.662 177.358 168.848 177.974 168.847 178.604V190.218C168.847 190.328 168.891 190.433 168.969 190.511C169.046 190.588 169.152 190.632 169.261 190.632H173.471C173.581 190.631 173.686 190.588 173.763 190.51C173.841 190.433 173.884 190.328 173.885 190.218V178.698C173.885 177.826 174.232 176.99 174.848 176.373C175.465 175.756 176.301 175.409 177.173 175.408C177.625 175.411 178.073 175.499 178.492 175.668C179.076 175.906 179.576 176.313 179.928 176.836C180.279 177.36 180.465 177.977 180.463 178.608V190.681C180.463 190.79 180.507 190.896 180.584 190.973C180.662 191.051 180.767 191.094 180.877 191.094H185.085C185.195 191.094 185.3 191.051 185.378 190.973C185.456 190.896 185.499 190.791 185.5 190.681V178.616C185.5 174.876 183.01 171.608 179.447 170.669C178.705 170.472 177.941 170.372 177.173 170.37C175.058 170.366 173.021 171.172 171.481 172.622ZM140.155 180.73C140.154 179.449 140.621 178.211 141.469 177.249L141.502 177.206L141.521 177.189C141.637 177.059 141.762 176.935 141.892 176.818C142.789 176.006 143.938 175.527 145.146 175.462C146.354 175.396 147.548 175.747 148.528 176.457C149.508 177.166 150.215 178.191 150.529 179.359C150.844 180.527 150.748 181.768 150.257 182.874C149.766 183.98 148.91 184.883 147.832 185.433C146.755 185.983 145.521 186.146 144.337 185.895C143.154 185.644 142.093 184.994 141.331 184.054C140.57 183.113 140.154 181.94 140.155 180.73ZM113.381 168.625C113.271 168.625 113.166 168.669 113.089 168.746C113.012 168.824 112.968 168.929 112.968 169.038V180.951C113.01 182.981 113.649 184.954 114.803 186.624C115.958 188.294 117.578 189.588 119.462 190.346C121.346 191.103 123.411 191.289 125.401 190.882C127.39 190.475 129.216 189.492 130.651 188.056L133.981 184.726C134.125 184.581 134.301 184.473 134.495 184.412C134.69 184.35 134.896 184.337 135.096 184.374C135.299 184.409 135.49 184.493 135.654 184.618C135.817 184.744 135.946 184.908 136.032 185.095C137.034 187.245 138.744 188.985 140.876 190.026C143.007 191.067 145.431 191.345 147.743 190.814C150.055 190.283 152.115 188.975 153.578 187.107C155.041 185.24 155.819 182.928 155.783 180.556C155.69 174.969 151.063 170.393 145.468 170.371H145.421C142.81 170.357 140.293 171.343 138.388 173.129C135.476 175.82 127.134 184.38 127.052 184.465C126.314 185.203 125.373 185.706 124.349 185.91C123.325 186.114 122.263 186.009 121.299 185.61C120.334 185.21 119.509 184.533 118.929 183.665C118.349 182.796 118.04 181.776 118.04 180.731V178.122C118.04 178.1 118.045 178.078 118.053 178.058C118.062 178.038 118.074 178.019 118.09 178.004C118.105 177.988 118.124 177.976 118.144 177.967C118.164 177.959 118.186 177.955 118.208 177.955H126.004C126.114 177.955 126.219 177.911 126.297 177.834C126.374 177.756 126.418 177.651 126.418 177.541V173.286C126.418 173.176 126.374 173.071 126.297 172.994C126.219 172.916 126.114 172.873 126.004 172.873H118.208C118.164 172.872 118.121 172.854 118.09 172.823C118.058 172.791 118.04 172.748 118.04 172.704V169.038C118.041 168.93 117.998 168.826 117.922 168.749C117.846 168.671 117.743 168.627 117.635 168.625H113.381Z" fill="white"/>
</mask>
<g mask="url(#mask0_2554_102266)">
<path d="M185.5 168.625H68.5V191.092H185.5V168.625Z" fill="url(#paint0_linear_2554_102266)"/>
</g>
</g>
</g>
<defs>
<linearGradient id="paint0_linear_2554_102266" x1="68.2995" y1="179.592" x2="185.151" y2="179.592" gradientUnits="userSpaceOnUse">
<stop stop-color="#1436D8"/>
<stop offset="0.47" stop-color="#4866FF"/>
<stop offset="1" stop-color="#00FFFF"/>
</linearGradient>
<clipPath id="clip0_2554_102266">
<rect width="117" height="52" fill="white" transform="translate(68.5 154)"/>
</clipPath>
<clipPath id="clip1_2554_102266">
<rect width="117" height="22.4665" fill="white" transform="translate(68.5 168.625)"/>
</clipPath>
</defs>
</svg>
